<?xml version="1.0" standalone="no"?>
<!DOCTYPE svg PUBLIC "-//W3C//DTD SVG 20010904//EN"
 "http://www.w3.org/TR/2001/REC-SVG-20010904/DTD/svg10.dtd">
<svg version="1.0" xmlns="http://www.w3.org/2000/svg"
 width="1491.000000pt" height="651.000000pt" viewBox="0 0 1491.000000 651.000000"
 preserveAspectRatio="xMidYMid meet">

<g transform="translate(0.000000,651.000000) scale(0.100000,-0.100000)"
fill="#000000" stroke="none">
<path d="M3255 4621 c-48 -22 -79 -54 -100 -103 -13 -32 -15 -120 -15 -657 0
-590 1 -620 19 -642 26 -32 86 -32 112 0 18 22 19 51 19 595 0 501 2 574 16
594 l15 22 449 0 449 0 15 -22 c14 -20 16 -112 16 -793 0 -873 5 -819 -80
-862 l-44 -23 -693 0 c-462 0 -709 4 -743 11 -68 14 -128 62 -162 128 l-28 53
0 510 0 510 -29 29 c-28 27 -34 29 -113 29 -75 0 -87 3 -106 23 -30 31 -28 72
4 104 24 24 29 25 127 21 111 -4 143 -16 196 -69 69 -68 65 -42 71 -599 5
-554 2 -529 67 -571 27 -18 62 -19 669 -19 l641 0 21 23 c29 31 28 72 -3 102
l-24 25 -610 0 -610 0 -3 493 -3 492 -29 60 c-38 76 -105 143 -181 181 -56 27
-69 29 -196 32 -101 3 -144 0 -170 -11 -145 -61 -192 -240 -92 -357 43 -50 94
-77 162 -86 l51 -7 0 -436 c0 -273 4 -460 11 -496 20 -110 81 -201 175 -261
104 -66 80 -65 915 -62 l754 3 41 22 c69 37 105 74 135 138 l29 60 0 838 c0
733 -2 842 -15 875 -21 49 -52 81 -100 103 -37 17 -74 19 -515 19 -441 0 -478
-2 -515 -19z m350 -91 c0 -18 -6 -26 -23 -28 -13 -2 -25 3 -28 12 -10 26 4 48
28 44 17 -2 23 -10 23 -28z m375 0 l0 -30 -150 0 -150 0 0 30 0 30 150 0 150
0 0 -30z"/>
<path d="M5010 3721 l0 -461 95 0 95 0 0 145 0 145 173 0 c197 0 249 10 311
62 21 17 49 54 62 82 21 45 24 65 24 176 0 100 -4 133 -19 165 -22 49 -62 90
-116 119 -38 20 -55 21 -332 24 l-293 3 0 -460z m547 275 c26 -23 28 -30 32
-111 6 -162 -12 -175 -234 -175 l-155 0 0 155 0 155 164 0 c160 0 166 -1 193
-24z"/>
<path d="M5870 3720 l0 -460 90 0 90 0 0 206 c0 190 2 209 20 239 27 44 75 65
149 65 52 0 66 -4 86 -25 l25 -24 0 -231 0 -230 90 0 91 0 -3 258 -3 259 -30
48 c-40 65 -97 94 -196 102 -84 6 -140 -6 -193 -42 l-36 -24 0 159 0 160 -90
0 -90 0 0 -460z"/>
<path d="M9000 3720 l0 -460 85 0 85 0 0 280 c0 154 3 280 8 280 4 0 56 -88
116 -195 86 -154 113 -195 130 -196 44 -2 72 3 88 18 10 9 61 96 115 194 84
153 117 204 112 172 -1 -5 -1 -131 0 -280 l1 -273 85 0 85 0 0 460 0 460 -79
0 -79 0 -136 -253 c-75 -140 -142 -261 -149 -270 -10 -15 -33 21 -161 253
l-148 270 -79 0 -79 0 0 -460z"/>
<path d="M11340 3720 l0 -460 90 0 90 0 0 93 0 93 38 36 37 36 100 -129 100
-129 103 0 103 0 -20 28 c-11 15 -76 99 -145 187 l-124 160 141 143 142 142
-105 0 -105 0 -133 -132 c-73 -73 -132 -128 -131 -123 1 6 1 124 0 263 l-1
252 -90 0 -90 0 0 -460z"/>
<path d="M12860 4015 l0 -95 -60 0 -60 0 0 -80 0 -80 60 0 60 0 0 -181 c-1
-171 0 -184 22 -227 35 -69 77 -86 216 -90 l112 -4 0 76 0 76 -68 0 c-101 0
-102 1 -102 193 l0 157 85 0 85 0 0 80 0 80 -85 0 -85 0 0 95 0 95 -90 0 -90
0 0 -95z"/>
<path d="M6849 3921 c-102 -19 -177 -83 -204 -175 -21 -70 -20 -267 2 -331 22
-65 85 -127 152 -150 42 -14 79 -16 194 -13 158 4 192 14 254 80 55 57 63 90
63 256 0 139 -2 151 -25 199 -27 54 -71 94 -132 119 -43 18 -234 27 -304 15z
m226 -163 c44 -20 55 -55 55 -177 0 -108 -1 -111 -29 -143 -28 -31 -34 -33
-108 -36 -148 -7 -183 28 -183 183 0 95 15 143 51 169 28 20 174 22 214 4z"/>
<path d="M7729 3921 c-38 -12 -71 -31 -96 -54 l-23 -20 0 36 0 37 -85 0 -85 0
0 -330 0 -330 90 0 90 0 0 200 c0 216 3 232 55 280 22 21 38 25 99 28 66 4 75
2 102 -21 l29 -25 3 -231 4 -231 84 0 85 0 -3 264 -3 264 -30 43 c-44 63 -104
90 -207 95 -46 2 -95 0 -109 -5z"/>
<path d="M8417 3920 c-64 -11 -131 -53 -167 -101 -40 -55 -53 -129 -48 -273 4
-138 20 -181 85 -235 58 -48 111 -61 247 -61 139 0 176 8 242 53 48 32 77 76
89 135 l7 32 -91 0 c-81 0 -90 -2 -96 -20 -12 -38 -59 -52 -162 -48 -86 3 -97
5 -114 27 -23 28 -34 65 -25 86 5 13 41 15 246 15 l240 0 0 86 c0 114 -14 165
-61 218 -60 68 -108 87 -236 91 -59 2 -129 0 -156 -5z m244 -178 c18 -20 29
-43 29 -62 l0 -30 -155 0 c-154 0 -155 0 -155 23 0 30 35 86 63 97 12 5 59 9
105 7 81 -2 85 -3 113 -35z"/>
<path d="M10253 3920 c-103 -22 -183 -103 -183 -185 0 -25 1 -25 85 -25 82 0
86 1 95 24 12 33 74 49 159 44 54 -4 67 -8 87 -32 17 -18 24 -40 24 -67 0 -44
2 -44 -64 -24 -27 8 -86 15 -131 15 -186 0 -274 -68 -275 -213 0 -72 17 -113
63 -154 47 -41 91 -53 205 -53 100 0 134 11 185 58 l27 26 0 -37 0 -37 85 0
85 0 0 233 c0 136 -5 248 -11 272 -16 59 -52 100 -114 131 -49 23 -70 27 -168
30 -62 2 -131 -1 -154 -6z m226 -404 c43 -15 46 -23 21 -63 -28 -47 -73 -66
-155 -67 -96 -1 -115 11 -115 74 0 36 5 52 18 59 24 14 190 12 231 -3z"/>
<path d="M12223 3920 c-83 -17 -144 -63 -179 -132 -22 -44 -27 -69 -31 -167
-9 -197 24 -283 129 -338 51 -27 58 -28 208 -28 153 0 156 0 210 30 61 34 106
90 116 148 l6 37 -89 0 c-86 0 -90 -1 -101 -25 -16 -35 -49 -45 -143 -45 -97
0 -133 15 -149 65 -22 66 -27 65 241 65 l241 0 -3 113 c-4 100 -7 117 -31 158
-27 46 -79 89 -133 109 -39 15 -238 22 -292 10z m226 -154 c30 -16 51 -53 51
-91 l0 -25 -149 0 c-91 0 -152 4 -156 10 -13 20 17 81 49 101 39 24 162 27
205 5z"/>
<path d="M10840 3590 l0 -330 90 0 90 0 0 193 c0 163 3 197 18 226 29 58 63
75 153 80 l79 3 0 80 0 81 -80 -5 c-67 -4 -87 -10 -130 -36 l-50 -31 0 34 0
35 -85 0 -85 0 0 -330z"/>
<path d="M5014 2896 c-36 -16 -44 -32 -44 -91 0 -55 29 -80 103 -90 96 -14
117 -28 117 -81 0 -42 -19 -55 -84 -60 -43 -3 -59 1 -80 17 -14 11 -26 27 -26
35 0 8 -9 14 -21 14 -28 0 -17 -36 23 -74 29 -27 35 -28 105 -24 67 3 78 6 99
31 17 20 24 40 24 68 0 59 -30 84 -120 100 -80 14 -110 34 -110 73 0 44 25 57
99 54 61 -3 67 -5 79 -30 7 -16 20 -28 28 -28 22 0 17 36 -10 66 -20 24 -32
28 -87 31 -40 2 -76 -2 -95 -11z"/>
<path d="M6150 2744 c0 -88 4 -164 10 -175 13 -24 80 -28 80 -4 0 8 -9 15 -20
15 -33 0 -40 33 -40 179 0 119 -2 141 -15 141 -13 0 -15 -24 -15 -156z"/>
<path d="M7252 2735 c3 -180 5 -185 61 -185 33 0 37 27 5 32 -23 3 -23 6 -26
161 -2 151 -3 157 -23 157 -20 0 -20 -4 -17 -165z"/>
<path d="M11670 2838 c0 -48 -3 -59 -12 -50 -7 7 -37 12 -68 12 -48 0 -60 -4
-81 -26 -21 -23 -24 -35 -24 -106 0 -75 2 -81 28 -104 33 -28 100 -33 135 -8
12 8 22 10 22 5 0 -6 9 -11 20 -11 19 0 20 7 20 175 0 168 -1 175 -20 175 -18
0 -20 -7 -20 -62z m-18 -85 c13 -12 18 -31 18 -75 0 -49 -4 -63 -25 -83 -28
-29 -70 -32 -103 -9 -19 13 -22 24 -22 81 0 82 15 103 73 103 24 0 48 -7 59
-17z"/>
<path d="M5294 2875 c-8 -19 3 -35 26 -35 19 0 34 25 24 41 -8 14 -44 10 -50
-6z"/>
<path d="M8143 2874 c-3 -8 -1 -20 5 -26 16 -16 42 -2 42 22 0 24 -38 28 -47
4z"/>
<path d="M7970 2840 c0 -36 -2 -40 -25 -40 -32 0 -34 -27 -2 -32 21 -3 22 -9
27 -98 3 -52 9 -101 13 -107 12 -19 87 -17 87 2 0 10 -10 15 -29 15 -36 0 -41
12 -41 111 l0 79 35 0 c24 0 35 5 35 15 0 10 -11 15 -35 15 -34 0 -35 1 -35
40 0 29 -4 40 -15 40 -11 0 -15 -11 -15 -40z"/>
<path d="M10429 2868 c-1 -7 0 -25 1 -40 1 -24 -2 -28 -24 -28 -32 0 -35 -27
-3 -32 21 -3 22 -9 27 -98 3 -52 9 -101 13 -107 12 -19 87 -17 87 2 0 10 -10
15 -29 15 -36 0 -41 12 -41 111 l0 79 35 0 c24 0 35 5 35 15 0 10 -11 15 -35
15 -34 0 -35 1 -35 40 0 29 -4 40 -15 40 -8 0 -15 -6 -16 -12z"/>
<path d="M12380 2840 c0 -36 -2 -40 -25 -40 -32 0 -34 -27 -2 -32 21 -3 22 -8
24 -90 2 -110 11 -128 63 -128 29 0 40 4 40 15 0 10 -10 15 -29 15 -36 0 -41
12 -41 111 l0 79 35 0 c24 0 35 5 35 15 0 10 -11 15 -35 15 -34 0 -35 1 -35
40 0 29 -4 40 -15 40 -11 0 -15 -11 -15 -40z"/>
<path d="M7456 2799 c-58 -9 -76 -38 -76 -127 0 -69 2 -76 30 -104 29 -28 35
-30 90 -26 63 5 100 26 100 60 0 25 -14 23 -44 -7 -45 -45 -126 -27 -140 31
-10 38 5 44 108 44 l89 0 -6 41 c-10 74 -59 103 -151 88z m98 -45 c9 -8 16
-27 16 -40 0 -25 -1 -25 -77 -22 -76 3 -78 4 -75 27 1 14 7 30 13 38 16 19
104 17 123 -3z"/>
<path d="M7765 2803 c-86 -9 -105 -34 -105 -138 0 -61 3 -69 30 -97 29 -29 34
-30 92 -26 48 4 65 9 79 27 23 28 25 61 4 61 -8 0 -15 -4 -15 -10 0 -5 -9 -19
-20 -30 -24 -24 -77 -26 -108 -4 -19 13 -22 24 -22 84 0 85 12 100 80 100 39
0 52 -4 60 -20 12 -22 40 -27 40 -7 0 38 -54 66 -115 60z"/>
<path d="M11275 2802 c-67 -11 -89 -51 -83 -147 5 -80 25 -105 91 -112 57 -7
92 2 117 27 17 17 20 34 20 100 0 73 -3 83 -25 105 -13 14 -32 25 -42 26 -10
0 -27 2 -38 3 -11 1 -29 0 -40 -2z m99 -54 c20 -28 21 -127 3 -152 -19 -25
-90 -33 -122 -12 -23 15 -25 23 -25 83 0 85 14 103 81 103 38 0 51 -5 63 -22z"/>
<path d="M5300 2675 c0 -118 1 -125 20 -125 19 0 20 7 20 125 0 118 -1 125
-20 125 -19 0 -20 -7 -20 -125z"/>
<path d="M5430 2675 c0 -104 2 -125 15 -125 12 0 15 16 15 83 0 110 12 132 70
132 l45 0 3 -107 c2 -100 4 -108 22 -108 18 0 20 7 20 93 0 105 11 127 66 127
48 0 54 -14 54 -122 0 -91 1 -98 20 -98 19 0 20 7 20 89 0 90 -11 139 -33 153
-22 14 -100 9 -118 -8 -17 -15 -19 -15 -34 0 -22 21 -93 21 -117 -1 -17 -15
-18 -15 -18 0 0 10 -7 17 -15 17 -13 0 -15 -21 -15 -125z"/>
<path d="M5860 2620 c0 -153 2 -180 15 -180 12 0 15 14 15 65 l0 65 25 -16
c38 -25 112 -14 142 21 20 22 23 37 23 101 0 66 -3 78 -25 99 -19 20 -34 25
-76 25 -35 0 -59 -6 -71 -17 -17 -15 -18 -15 -18 0 0 10 -7 17 -15 17 -13 0
-15 -27 -15 -180z m171 134 c8 -10 14 -42 14 -81 0 -57 -3 -67 -25 -85 -31
-25 -87 -19 -112 13 -26 31 -24 118 2 147 26 27 100 31 121 6z"/>
<path d="M6305 2775 c-25 -24 -28 -40 -25 -125 2 -64 8 -78 40 -95 56 -29 158
-11 174 30 16 43 -5 47 -41 9 -21 -23 -30 -26 -70 -21 -54 6 -64 15 -66 58
l-2 34 93 3 92 3 0 38 c0 24 -8 48 -21 65 -18 23 -27 26 -85 26 -56 0 -68 -4
-89 -25z m151 -30 c28 -43 13 -55 -66 -55 -79 0 -94 12 -66 55 14 21 24 25 66
25 42 0 52 -4 66 -25z"/>
<path d="M6724 2792 c-15 -9 -34 -47 -34 -65 0 -32 35 -57 95 -68 67 -12 85
-23 85 -50 0 -44 -97 -54 -134 -14 -13 14 -28 25 -35 25 -19 0 -12 -30 14 -55
19 -20 34 -25 77 -25 76 0 102 16 106 64 4 50 -17 73 -77 82 -77 11 -93 20
-89 52 3 26 6 27 61 30 52 3 59 1 64 -17 6 -24 43 -29 43 -6 0 35 -38 55 -102
55 -35 0 -68 -4 -74 -8z"/>
<path d="M6985 2774 c-22 -24 -25 -36 -25 -101 0 -70 2 -77 30 -105 29 -28 35
-30 90 -26 63 5 100 26 100 60 0 25 -14 23 -44 -7 -48 -48 -134 -23 -139 40
l-2 30 99 3 99 3 -6 40 c-3 23 -16 52 -28 65 -19 20 -32 24 -86 24 -56 0 -67
-3 -88 -26z m149 -20 c9 -8 16 -27 16 -40 0 -25 -1 -25 -77 -22 -77 3 -78 3
-75 28 1 14 10 31 19 38 24 17 98 15 117 -4z"/>
<path d="M8150 2675 c0 -104 2 -125 15 -125 13 0 15 21 15 125 0 104 -2 125
-15 125 -13 0 -15 -21 -15 -125z"/>
<path d="M8292 2780 c-28 -27 -35 -57 -30 -131 5 -74 27 -99 91 -106 57 -7 92
2 117 27 17 17 20 34 20 100 0 73 -3 83 -25 105 -20 21 -34 25 -88 25 -50 0
-68 -4 -85 -20z m152 -32 c20 -28 21 -127 3 -152 -19 -25 -90 -33 -122 -12
-23 15 -25 23 -25 83 0 85 14 103 81 103 38 0 51 -5 63 -22z"/>
<path d="M8570 2675 c0 -104 2 -125 15 -125 12 0 15 16 15 84 0 107 18 136 86
136 39 0 46 -3 54 -26 6 -14 10 -63 10 -110 0 -68 3 -84 15 -84 12 0 15 18 15
103 0 90 -3 106 -20 125 -25 27 -103 30 -138 6 -20 -14 -22 -14 -22 0 0 9 -7
16 -15 16 -13 0 -15 -21 -15 -125z"/>
<path d="M8872 2784 c-15 -10 -22 -25 -22 -49 0 -42 20 -62 68 -71 84 -14 97
-20 100 -44 5 -31 -21 -50 -69 -50 -35 0 -69 20 -69 41 0 5 -9 9 -19 9 -18 0
-19 -4 -10 -29 12 -35 46 -51 108 -51 64 0 101 28 101 75 0 43 -23 60 -104 74
-33 6 -61 11 -62 11 -9 0 -12 35 -4 51 15 28 105 27 122 -1 7 -11 18 -20 25
-20 19 0 16 35 -5 53 -25 23 -129 23 -160 1z"/>
<path d="M9389 2781 c-41 -33 -43 -168 -4 -211 14 -16 31 -20 76 -20 32 0 61
5 64 10 12 20 25 9 25 -20 0 -42 -31 -70 -78 -70 -26 0 -45 7 -57 20 -21 23
-45 26 -45 6 0 -47 108 -73 170 -41 41 21 43 34 41 253 -1 75 -4 92 -16 92 -8
0 -15 -5 -15 -10 0 -7 -6 -7 -19 0 -33 17 -116 12 -142 -9z m145 -33 c23 -33
21 -109 -5 -142 -17 -21 -29 -26 -64 -26 -60 0 -79 28 -73 107 6 66 22 83 84
83 33 0 46 -5 58 -22z"/>
<path d="M9660 2675 c0 -118 1 -125 20 -125 19 0 20 7 20 89 0 85 1 91 26 110
15 12 35 21 45 21 11 0 19 7 19 15 0 20 -39 19 -68 -1 -20 -14 -22 -14 -22 0
0 9 -9 16 -20 16 -19 0 -20 -7 -20 -125z"/>
<path d="M9851 2776 c-47 -50 -35 -196 19 -223 31 -16 104 -17 133 -1 45 23
62 68 27 68 -11 0 -20 -7 -20 -15 0 -9 -12 -20 -26 -25 -66 -26 -124 2 -124
60 l0 30 95 0 95 0 0 40 c0 64 -32 90 -113 90 -54 0 -67 -4 -86 -24z m157 -39
c7 -15 10 -32 7 -37 -3 -6 -40 -10 -81 -10 -64 0 -74 2 -74 18 0 10 7 28 16
40 14 20 23 23 67 20 45 -3 54 -6 65 -31z"/>
<path d="M10142 2784 c-24 -17 -30 -44 -8 -44 7 0 19 7 26 15 15 18 101 20
118 3 7 -7 12 -27 12 -45 0 -30 -2 -33 -19 -23 -34 18 -106 12 -135 -11 -20
-16 -26 -29 -26 -59 0 -30 6 -43 26 -59 32 -25 100 -28 132 -5 12 8 22 10 22
5 0 -6 10 -11 21 -11 21 0 21 4 17 106 -3 97 -6 108 -27 125 -30 24 -126 26
-159 3z m122 -124 c34 -13 33 -43 -1 -70 -38 -30 -92 -24 -112 12 -14 24 -14
28 3 47 21 23 67 28 110 11z"/>
<path d="M10730 2620 c0 -173 1 -180 20 -180 18 0 20 7 20 61 0 54 2 60 18 54
64 -27 126 -16 152 28 37 60 21 193 -25 211 -26 10 -104 7 -126 -4 -13 -7 -19
-7 -19 0 0 5 -9 10 -20 10 -19 0 -20 -7 -20 -180z m180 131 c5 -11 10 -47 10
-80 0 -48 -4 -65 -20 -81 -26 -26 -70 -26 -104 1 -23 18 -26 28 -26 78 0 79
17 101 80 101 39 0 52 -4 60 -19z"/>
<path d="M11030 2675 c0 -100 3 -125 14 -125 11 0 15 21 18 91 3 81 6 93 27
110 13 10 34 19 47 19 15 0 24 6 24 15 0 20 -44 20 -75 -1 -23 -15 -25 -15
-25 0 0 9 -7 16 -15 16 -13 0 -15 -21 -15 -125z"/>
<path d="M11790 2695 c0 -99 2 -107 25 -130 31 -32 91 -34 129 -4 21 17 26 18
26 5 0 -9 7 -16 15 -16 13 0 15 21 15 125 0 104 -2 125 -15 125 -12 0 -15 -16
-15 -86 0 -81 -1 -87 -29 -115 -37 -36 -83 -39 -105 -7 -12 16 -16 47 -16 115
0 76 -3 93 -15 93 -12 0 -15 -18 -15 -105z"/>
<path d="M12095 2775 c-22 -21 -25 -33 -25 -100 0 -71 2 -79 29 -106 24 -24
38 -29 76 -29 66 0 114 30 115 71 0 29 -29 31 -36 3 -12 -46 -82 -60 -125 -25
-21 17 -24 27 -23 85 1 82 12 96 75 96 38 0 52 -4 61 -20 14 -22 48 -27 48 -7
0 8 -10 23 -23 35 -19 18 -35 22 -86 22 -52 0 -66 -4 -86 -25z"/>
<path d="M12557 2782 c-10 -10 -17 -35 -17 -55 0 -43 13 -52 102 -70 55 -11
63 -16 66 -37 5 -30 -21 -50 -66 -50 -40 0 -72 15 -72 35 0 8 -9 15 -20 15
-25 0 -26 -21 -1 -51 17 -21 28 -24 91 -24 63 0 74 3 91 24 42 52 12 105 -68
117 -68 10 -93 21 -93 42 0 30 21 42 72 42 37 0 50 -4 58 -20 13 -23 40 -27
40 -5 0 8 -9 24 -20 35 -28 28 -139 29 -163 2z"/>
<path d="M9130 2571 c0 -10 -9 -29 -19 -43 -13 -16 -17 -29 -11 -38 7 -12 14
-10 34 10 30 27 37 90 11 90 -8 0 -15 -8 -15 -19z"/>
<path d="M2685 2480 c-11 -4 -31 -20 -45 -35 -20 -22 -25 -37 -25 -81 0 -47 4
-58 31 -85 58 -58 151 -47 194 24 61 100 -46 222 -155 177z"/>
<path d="M4004 2474 c-39 -19 -64 -62 -64 -111 2 -138 189 -170 239 -39 39
104 -73 201 -175 150z"/>
</g>
</svg>
